<svg xmlns="http://www.w3.org/2000/svg" width="6144" height="1024" viewBox="0 0 1024 1024" preserveAspectRatio="xMidYMid meet">
  <!-- Colours from https://developer.apple.com/ios/human-interface-guidelines/visual-design/color -->
  <path fill="#5856D6" d="M512 297L297 297L297 82ZM512 297L512 82L727 82ZM512 727L727 727L727 942ZM512 727L512 942L297 942ZM297 512L82 512L82 297ZM727 512L727 297L942 297ZM727 512L942 512L942 727ZM297 512L297 727L82 727Z"/>
  <path fill="#FF9500" d="M297 82L297 297L82 297ZM942 297L727 297L727 82ZM727 942L727 727L942 727ZM82 727L297 727L297 942ZM297 297L512 297L512 447.5L383 383L447.5 512L297 512ZM727 297L727 512L576.5 512L641 383L512 447.5L512 297ZM727 727L512 727L512 576.5L641 641L576.5 512L727 512ZM297 727L297 512L447.5 512L383 641L512 576.5L512 727Z"/>
</svg>
